<svg width="23px" height="20px" viewBox="0 0 23 20" version="1.1" xmlns="http://www.w3.org/2000/svg" xmlns:xlink="http://www.w3.org/1999/xlink">
    <!-- Generator: Sketch 46.2 (44496) - http://www.bohemiancoding.com/sketch -->
    <desc>Created with Sketch.</desc>
    <defs></defs>
    <g id="Symbols" stroke="none" stroke-width="1" fill="none" fill-rule="evenodd">
        <g id="FOOTER" transform="translate(-1258.000000, -133.000000)" fill="#23C8C6" stroke="#FFFFFF">
            <g id="Group-9">
                <g id="Group-8" transform="translate(1006.000000, 30.000000)">
                    <g id="Group-5" transform="translate(16.000000, 100.000000)">
                        <path d="M251.604516,18.7119297 L256.057828,11.0423359 C256.152123,10.8798731 256.096875,10.6716777 255.934412,10.5773418 C255.77199,10.4830879 255.563836,10.5382539 255.469418,10.7007578 L251.11323,18.2030898 L246.834316,11.5707813 L251.248131,4.78031641 L257.183748,7.74816602 L256.101469,9.61220313 C256.007174,9.77466602 256.062422,9.98286133 256.224885,10.0771973 C256.387225,10.1714102 256.595461,10.1162852 256.689879,9.95378125 L257.319674,8.86920508 L257.319674,21.5695293 L251.604516,18.7119297 Z M244.211654,15.0154785 L244.211654,8.76063672 L250.168723,17.9940332 L244.211654,15.0154785 Z M257.999221,7.5903379 C257.993684,7.46909571 257.921619,7.35548243 257.811984,7.3015879 L251.280697,4.03596485 C251.125781,3.95856836 250.937643,4.00967383 250.843307,4.15482813 L246.430148,10.9443086 L244.157309,7.42143555 C244.12466,7.37078125 244.077533,7.32857618 244.02368,7.3015879 L237.492352,4.03596485 C237.269965,3.92473047 237,4.09211524 237,4.34025977 L237,7.60596485 C237,7.79385743 237.15225,7.94610743 237.340184,7.94610743 C237.528076,7.94610743 237.680367,7.79385743 237.680367,7.60596485 L237.680367,4.89064844 L243.531328,7.81612891 L243.531328,21.5694883 L237.680367,18.6440078 L237.680367,9.05738477 C237.680367,8.86949219 237.528076,8.71720118 237.340184,8.71720118 C237.15225,8.71720118 237,8.86949219 237,9.05738477 L237,18.8542949 C237,18.983125 237.072803,19.1009219 237.188057,19.1585488 L243.719385,22.4241719 C243.941977,22.5354883 244.211654,22.3678164 244.211654,22.119918 L244.211654,15.7761543 L257.507689,22.4241719 C257.730322,22.5354883 258,22.3678164 258,22.119918 L258,7.60588282 C258,7.60063282 257.999467,7.59554688 257.999221,7.5903379 L257.999221,7.5903379 Z" id="Fill-1"></path>
                    </g>
                </g>
            </g>
        </g>
    </g>
</svg>