<?xml version="1.0" encoding="UTF-8"?>
<svg width="24px" height="24px" viewBox="0 0 24 24" version="1.1" xmlns="http://www.w3.org/2000/svg" xmlns:xlink="http://www.w3.org/1999/xlink">
    <!-- Generator: Sketch 46.2 (44496) - http://www.bohemiancoding.com/sketch -->
    <title>icon-facebookFill 1</title>
    <desc>Created with Sketch.</desc>
    <defs></defs>
    <g id="Symbols" stroke="none" stroke-width="1" fill="none" fill-rule="evenodd">
        <g id="FOOTER" transform="translate(-1165.000000, -131.000000)" fill="#FFFFFF">
            <g id="Group-9">
                <g id="Group-8" transform="translate(1006.000000, 30.000000)">
                    <g id="Group-5" transform="translate(16.000000, 100.000000)">
                        <g id="Fill-1" transform="translate(143.000000, 1.000000)">
                            <path d="M11.9984895,0 C5.38327921,0 0,5.38388339 0,11.9990937 C0,18.6167208 5.38327921,24 11.9984895,24 C18.6161166,24 24,18.6167208 24,11.9990937 C24,5.38388339 18.6161166,0 11.9984895,0 Z M14.9843667,12.4214183 L13.0322483,12.4214183 L13.0322483,19.3816177 L10.1388113,19.3816177 L10.1388113,12.4214183 L8.76308436,12.4214183 L8.76308436,9.96238955 L10.1388113,9.96238955 L10.1388113,8.37157314 C10.1388113,7.23389472 10.6795559,5.45215618 13.0582282,5.45215618 L15.2012688,5.46121894 L15.2012688,7.84774564 L13.6460992,7.84774564 C13.3911336,7.84774564 13.0322483,7.97522846 13.0322483,8.51778567 L13.0322483,9.96480628 L15.2369156,9.96480628 L14.9843667,12.4214183 Z"></path>
                        </g>
                    </g>
                </g>
            </g>
        </g>
    </g>
</svg>